Genre: Comedy | Romance
Language:English
IMDb:  http://www.imdb.com/title/tt1598822/
Source:Starui.novui.god.D.TS/WDR Thanks!
Encoder:Tony 
http://img849.imageshack.us/img849/7563/vlcsnap2012012109h06m47.png 
http://img407.imageshack.us/img407/5360/vlcsnap2012012109h04m54.png

Format : AVI
Format/Info : Audio Video Interleave
File size : 1.56 GiB
Duration : 1h 48mn
Overall bit rate : 2 059 Kbps

Video
ID : 0
Format : MPEG-4 Visual
Format profile : Advanced Simple@L5
Format settings, BVOP : 1
Format settings, QPel : No
Format settings, GMC : No warppoints
Format settings, Matrix : Default (H.263)
Codec ID : XVID
Codec ID/Hint : XviD
Duration : 1h 48mn
Bit rate : 1 599 Kbps
Width : 640 pixels
Height : 344 pixels
Display aspect ratio : 1.860
Frame rate : 29.970 fps
Color space : YUV
Chroma subsampling : 4:2:0
Bit depth : 8 bits
Scan type : Progressive
Compression mode : Lossy
Bits/(Pixel*Frame) : 0.242
Stream size : 1.21 GiB (78%)
Writing library : XviD 1.2.1 (UTC 2008-12-04)

Audio
ID : 1
Format : AC-3
Format/Info : Audio Coding 3
Mode extension : CM (complete main)
Codec ID : 2000
Duration : 1h 48mn
Bit rate mode : Constant
Bit rate : 448 Kbps
Channel(s) : 2 channels
Channel positions : Front: L R
Sampling rate : 48.0 KHz
Bit depth : 16 bits
Compression mode : Lossy
Stream size : 347 MiB (22%)
Alignment : Aligned on interleaves
Interleave, duration : 33 ms (1.00 video frame)
Interleave, preload duration : 512 ms


Plot:
The lives of several couples and singles in New York intertwine over the course of New Year's Eve.